<svg width="154" height="48" viewBox="0 0 154 48" fill="none" xmlns="http://www.w3.org/2000/svg">
<path d="M60.06 43.7792C56.4872 43.7792 54.0232 41.3761 54.0232 37.5867V28.3748H56.518V37.6483C56.518 40.0205 57.9348 41.3761 60.06 41.3761C62.1852 41.3761 63.5712 40.0205 63.5712 37.6483V28.3748H66.066V37.5867C66.0968 41.3761 63.602 43.7792 60.06 43.7792Z" fill="#0044BD"/>
<path d="M69.0844 32.8729H71.4252V34.3209C72.072 33.2426 73.2732 32.6573 74.6592 32.6573C77.1232 32.6573 78.7248 34.4134 78.7248 37.1245V43.5636H76.384V37.525C76.384 35.8306 75.5216 34.8139 74.1664 34.8139C72.5956 34.8139 71.4252 36.0462 71.4252 38.3261V43.5636H69.0844V32.8729Z" fill="#0044BD"/>
<path d="M82.9445 30.5315C82.0821 30.5315 81.3737 29.8229 81.3737 28.9602C81.3737 28.0976 82.1129 27.389 82.9445 27.389C83.8069 27.389 84.5153 28.0976 84.5153 28.9602C84.5153 29.8229 83.8377 30.5315 82.9445 30.5315ZM81.7741 32.8729H84.1149V43.5636H81.7741V32.8729Z" fill="#0044BD"/>
<path d="M85.778 32.8729H88.396L91.63 40.3286L94.8948 32.8729H97.5436L92.6772 43.5327H90.6136L85.778 32.8729Z" fill="#0044BD"/>
<path d="M103.611 43.7484C100.439 43.7484 98.1597 41.4069 98.1597 38.2028C98.1597 35.0295 100.346 32.6573 103.642 32.6573C106.907 32.6573 109.186 35.1528 108.97 38.7882H100.47C100.562 40.4211 101.794 41.6842 103.704 41.6842C104.874 41.6842 105.89 41.2221 106.383 40.1746H108.847C108.262 42.1772 106.322 43.7484 103.611 43.7484ZM100.562 37.0937H106.445C106.075 35.3684 104.874 34.5982 103.55 34.5982C102.102 34.5982 100.901 35.4609 100.562 37.0937Z" fill="#0044BD"/>
<path d="M111.404 32.8729H113.744V34.7831C114.145 33.5507 115.346 32.7805 116.547 32.7805C116.855 32.7805 117.132 32.8113 117.471 32.8729V35.276C117.071 35.1528 116.732 35.0912 116.301 35.0912C114.946 35.0912 113.744 36.2311 113.744 38.3569V43.5636H111.404V32.8729Z" fill="#0044BD"/>
<path d="M123.077 43.7484C120.582 43.7484 118.642 42.4236 118.518 40.2978H120.952C121.136 41.4378 122.091 41.8691 123.138 41.8691C124.155 41.8691 124.863 41.4686 124.863 40.7292C124.863 39.9898 124.401 39.5892 123.292 39.312L121.537 38.8498C119.689 38.3877 118.796 37.1862 118.796 35.6149C118.796 33.828 120.366 32.6265 122.769 32.6265C125.079 32.6265 126.68 33.9204 126.834 35.8306H124.494C124.278 34.9371 123.57 34.5058 122.738 34.5058C121.845 34.5058 121.167 34.9063 121.167 35.5841C121.167 36.2619 121.691 36.6316 122.584 36.8781L124.37 37.3402C126.28 37.8331 127.204 38.9423 127.204 40.5751C127.266 42.6701 125.448 43.7484 123.077 43.7484Z" fill="#0044BD"/>
<path d="M130.808 30.5315C129.945 30.5315 129.237 29.8229 129.237 28.9602C129.237 28.0976 129.976 27.389 130.808 27.389C131.67 27.389 132.378 28.0976 132.378 28.9602C132.348 29.8229 131.67 30.5315 130.808 30.5315ZM129.606 32.8729H131.947V43.5636H129.606V32.8729Z" fill="#0044BD"/>
<path d="M139.77 43.656C137.707 43.656 136.105 42.5161 136.105 40.113V34.9679H133.888V32.8729H136.105V29.9153H138.446V32.8729H141.495V34.9679H138.446V39.7125C138.446 41.0372 139.031 41.5302 140.232 41.5302C140.694 41.5302 141.156 41.4377 141.495 41.3145V43.4095C141.033 43.5636 140.479 43.656 139.77 43.656Z" fill="#0044BD"/>
<path d="M144.575 48L146.854 42.9474L142.265 32.8729H144.852L148.117 40.4211L151.382 32.8729H154L147.162 48H144.575Z" fill="#0044BD"/>
<path d="M74.844 14.2028C75.1828 14.2028 75.46 14.4801 75.46 14.819V24C75.46 24.3389 75.1828 24.6162 74.844 24.6162H72.0412V23.4455C71.0863 24.5238 70.0083 25.0167 68.4992 25.0167C65.5424 25.0167 63.3864 22.7369 63.3864 19.5636C63.3864 16.2362 65.6656 13.8023 68.7763 13.8023C70.1007 13.8023 70.9939 14.2337 72.0103 15.3428V14.2028H74.844ZM67.0516 19.5019C67.0516 21.104 68.1296 22.3364 69.5156 22.3364C70.9324 22.3364 72.072 21.0424 72.072 19.4711C72.072 17.8075 71.0247 16.6675 69.5463 16.6675C68.0679 16.6367 67.0516 17.8075 67.0516 19.5019Z" fill="#282828"/>
<path d="M93.7553 14.2028C94.0941 14.2028 94.3713 14.4801 94.3713 14.819V24C94.3713 24.3389 94.0941 24.6162 93.7553 24.6162H90.9525V23.4455C89.9977 24.5238 88.9197 25.0167 87.4105 25.0167C84.4537 25.0167 82.2977 22.7369 82.2977 19.5636C82.2977 16.2362 84.5769 13.8023 87.6877 13.8023C89.0121 13.8023 89.9053 14.2337 90.9217 15.3428V14.2028H93.7553ZM85.9629 19.5019C85.9629 21.104 87.0409 22.3364 88.4269 22.3364C89.8437 22.3364 90.9833 21.0424 90.9833 19.4711C90.9833 17.8075 89.9361 16.6675 88.4577 16.6675C87.0101 16.6367 85.9629 17.8075 85.9629 19.5019Z" fill="#282828"/>
<path d="M55.9944 9.61231V12.8472H58.5816V18.3312C58.5816 20.0873 58.3968 20.457 57.8116 20.9191C57.4112 21.2272 56.7028 21.4121 55.9328 21.4121H54.054V24.7702H55.3476C56.3948 24.7702 57.3496 24.7394 58.1196 24.647C59.0744 24.5237 59.9676 24.1848 60.676 23.5687C61.8464 22.6136 62.216 21.3196 62.216 18.9474V10.2285C62.216 9.88959 61.9388 9.61231 61.6 9.61231H55.9944Z" fill="#282828"/>
<path d="M77.4312 24.6162V9.61231H80.234C80.5728 9.61231 80.85 9.88959 80.85 10.2285V24C80.85 24.3389 80.5728 24.6162 80.234 24.6162H77.4312Z" fill="#282828"/>
<path d="M30.4304 0C29.414 0 28.5824 0.831836 28.5824 1.84852V21.7202C28.5824 25.8793 26.2416 28.3748 22.2992 28.3748C18.3876 28.3748 16.0468 25.8793 16.0468 21.7202V18.8858C16.0468 17.8691 15.2152 17.0372 14.1988 17.0372H10.164V21.6277C10.164 29.0835 15.0612 34.1053 22.2992 34.1053C29.5988 34.1053 34.496 29.0835 34.496 21.6277V0H30.4304Z" fill="url(#paint0_linear_1_19)"/>
<path d="M36.7752 9.42747V21.2888C36.7752 30.6855 31.262 36.5084 22.3608 36.5084C13.4288 36.5084 7.8848 30.6855 7.8848 21.2888V9.51989H1.7248C0.77 9.51989 0 10.2901 0 11.2452V21.1656C0 34.9063 8.9936 44.1181 22.3608 44.1181C35.6972 44.1181 44.66 34.9063 44.66 21.1656V11.1836C44.66 10.2285 43.89 9.45828 42.9352 9.45828H36.7752V9.42747Z" fill="url(#paint1_linear_1_19)"/>
<defs>
<linearGradient id="paint0_linear_1_19" x1="77.0117" y1="48.025" x2="77.0117" y2="0.00442504" gradientUnits="userSpaceOnUse">
<stop stop-color="#0053FF"/>
<stop offset="0.2322" stop-color="#0057FF"/>
<stop offset="0.4561" stop-color="#0062FF"/>
<stop offset="0.6769" stop-color="#0076FF"/>
<stop offset="0.8943" stop-color="#0091FF"/>
<stop offset="1" stop-color="#00A1FF"/>
</linearGradient>
<linearGradient id="paint1_linear_1_19" x1="22.3319" y1="44.0923" x2="22.3319" y2="9.43652" gradientUnits="userSpaceOnUse">
<stop stop-color="#0053FF"/>
<stop offset="0.2322" stop-color="#0057FF"/>
<stop offset="0.4561" stop-color="#0062FF"/>
<stop offset="0.6769" stop-color="#0076FF"/>
<stop offset="0.8943" stop-color="#0091FF"/>
<stop offset="1" stop-color="#00A1FF"/>
</linearGradient>
</defs>
</svg>
